<svg width="35" height="40" viewBox="0 0 35 40" fill="none" xmlns="http://www.w3.org/2000/svg">
<path d="M13.9855 16.8563C12.8564 16.8563 11.9668 17.8458 11.9668 19.0542C11.9668 20.2583 12.8772 21.2521 13.9855 21.2521C15.1126 21.2521 16.0022 20.2583 16.0022 19.0542C16.0251 17.8438 15.1126 16.8563 13.9855 16.8563ZM21.2105 16.8563C20.0814 16.8563 19.1918 17.8458 19.1918 19.0542C19.1918 20.2583 20.1022 21.2521 21.2105 21.2521C22.3376 21.2521 23.2272 20.2583 23.2272 19.0542C23.2251 17.8438 22.3376 16.8563 21.2105 16.8563Z" fill="#253238"/>
<path d="M30.8292 0.250001L4.30626 0.25C3.77222 0.251366 3.24368 0.357907 2.75081 0.563539C2.25794 0.769172 1.8104 1.06987 1.43374 1.44846C1.05708 1.82705 0.758685 2.27613 0.55558 2.77004C0.352475 3.26396 0.248644 3.79304 0.250013 4.32708L0.250012 31.0854C0.250012 33.3417 2.07085 35.1625 4.30626 35.1625L26.75 35.1625L25.6979 31.4979L28.2333 33.8542L30.6271 36.0708L34.8854 39.8333L34.8854 4.32708C34.8868 3.79304 34.783 3.26396 34.5799 2.77004C34.3768 2.27613 34.0784 1.82705 33.7017 1.44846C33.325 1.06987 32.8775 0.769173 32.3846 0.563541C31.8918 0.357908 31.3632 0.251368 30.8292 0.250001ZM23.1875 26.0979C23.1875 26.0979 22.475 25.2479 21.8833 24.4917C24.475 23.7583 25.4646 22.1375 25.4646 22.1375C24.6521 22.6708 23.8813 23.05 23.1875 23.3083C20.6619 24.3654 17.8805 24.6538 15.1917 24.1375C14.1981 23.9423 13.2246 23.6564 12.2833 23.2833C11.7869 23.0948 11.3045 22.8713 10.8396 22.6146C10.7792 22.5708 10.7208 22.5542 10.6625 22.5146C10.6313 22.4997 10.6036 22.4784 10.5813 22.4521C10.225 22.2563 10.0271 22.1188 10.0271 22.1188C10.0271 22.1188 10.9771 23.7021 13.4917 24.4542C12.8979 25.2042 12.1646 26.0979 12.1646 26.0979C7.79168 25.9583 6.13126 23.0896 6.13126 23.0896C6.13126 16.7167 8.98126 11.5521 8.98126 11.5521C11.8313 9.4125 14.5417 9.47292 14.5417 9.47292L14.7396 9.71042C11.1771 10.7417 9.53334 12.3042 9.53334 12.3042C9.53334 12.3042 9.97084 12.0667 10.7021 11.7313C12.8188 10.8021 14.5 10.5438 15.1938 10.4833C15.3125 10.4646 15.4125 10.4438 15.5313 10.4438C18.9629 9.98129 22.4524 10.6335 25.4854 12.3042C25.4854 12.3042 23.9208 10.8208 20.5563 9.79167L20.8333 9.475C20.8333 9.475 23.5458 9.41458 26.3938 11.5542C26.3938 11.5542 29.2438 16.7188 29.2438 23.0917C29.2438 23.0896 27.5625 25.9583 23.1875 26.0979Z" fill="#253238"/>
</svg>
