<svg width="52" height="32" viewBox="0 0 52 32" fill="none" xmlns="http://www.w3.org/2000/svg">
<path d="M46.9649 20.8595L46.9363 20.8336C46.4858 20.4288 45.1059 19.1215 44.6406 18.5501C44.0944 17.8372 44.2204 17.3701 44.6297 16.6702C45.147 15.7857 46.1835 14.429 47.2804 12.9923C50.7938 8.39229 53.062 5.20779 52.5951 2.9458L52.3435 1.73761L39.3686 1.74309C39.3231 1.86223 38.6461 4.7579 35.7889 9.68866C33.717 13.2639 32.3581 14.387 31.8794 14.5853L31.8054 14.5634C31.6496 14.3761 31.3775 13.8705 31.2656 12.5675C31.1488 11.2025 31.2523 9.54993 31.3525 7.95181C31.4697 6.07779 31.5707 4.45928 31.3288 3.30125L30.9347 1.41469C30.4585 1.34062 28.7151 0.685775 23.8577 0.636004C19.6524 0.594072 18.4171 1.18543 17.8104 1.70665L15.8038 3.43057L18.3402 4.26138C19.3055 4.57763 19.6259 4.94248 19.8887 6.75106C20.0602 7.92986 20.15 9.91086 19.9648 11.6795C19.6987 14.2154 19.0607 14.6872 19.0277 14.7123C18.9178 14.6759 17.9859 14.2789 16.3682 10.949C15.2459 8.63957 14.2621 5.90771 13.5432 3.91299C12.7204 1.62866 12.8685 2.115 12.4511 1.03573L-0.101562 1.03534L0.710753 3.08101C4.09728 11.6175 7.20445 18.284 11.3626 23.0721C15.9568 28.3622 21.6663 31.1321 29.3572 31.1321H30.9029V29.6272C30.9029 28.2204 31.0224 27.2073 31.2789 26.4392C31.4355 25.9713 31.6436 25.5845 31.8621 25.1789C32.1866 24.5817 32.5038 24.3258 32.6769 24.2877C32.8339 24.2529 33.11 24.3649 33.4159 24.5871C34.2943 25.2248 34.9914 26.0626 35.7297 26.9499C36.7948 28.2302 37.8961 29.5536 39.6435 30.42C40.5984 30.8934 42.3486 31.1325 43.3118 31.1325C43.5667 31.1325 52.6482 31.1321 52.6595 31.1321L52.5931 29.5653C52.4941 27.2226 50.6001 24.2932 46.9649 20.8595ZM43.3718 28.1224H43.3469C42.6827 28.133 41.4151 27.921 41.0464 27.7383C39.8847 27.1623 39.0728 26.1861 38.132 25.0558C37.3064 24.0632 36.4526 23.0368 35.264 22.1743C34.3027 21.4763 33.4296 21.2721 32.7364 21.2721C32.4595 21.2721 32.2107 21.3047 31.9974 21.3517C31.1927 21.5281 30.0419 22.0916 29.1269 23.7763C28.8689 24.2556 28.5762 24.7984 28.3392 25.5085C28.0908 26.2515 27.9362 27.0772 27.8625 28.0816C22.0668 27.7611 17.5444 25.5289 13.7235 21.1291C10.1711 17.0382 7.37633 11.3162 4.41649 4.04388C4.63064 4.04388 9.99683 4.04466 10.3136 4.04466C10.4106 4.30997 10.5153 4.60076 10.6264 4.90878C11.4013 7.06065 12.4628 10.0073 13.7134 12.5201C15.5043 16.1184 17.1398 17.7232 19.016 17.7232C19.9527 17.7232 20.7928 17.3368 21.4453 16.6051C22.3756 15.5623 22.9158 13.8411 23.0969 11.3428C23.2398 9.3728 23.107 7.41061 22.95 6.32938C22.8204 5.43979 22.6356 4.50592 22.1848 3.66923C24.1061 3.58498 26.6787 3.71822 28.3086 3.94591C28.4567 4.73126 28.3601 6.27491 28.2667 7.7684C28.0409 11.3761 27.8078 15.0991 29.7694 16.841C30.1143 17.1475 30.4802 17.3117 30.4907 17.3184L31.489 17.6166C31.8742 17.501 34.1055 18.603 38.3305 11.4247C39.6842 9.12473 40.9445 6.47438 41.6232 4.7434C43.1971 4.74027 48.5593 4.74615 49.1893 4.74693C48.2968 6.65896 46.1819 9.38612 44.7996 11.1963C43.5944 12.774 42.5539 14.1366 41.9432 15.1806C40.8089 17.1201 40.9997 18.8487 42.1811 20.3735L42.1996 20.3971C42.859 21.2141 44.4872 22.7268 44.825 23.0317C47.2716 25.3443 48.4506 27.0055 49.0117 28.122H43.3718V28.1224Z" fill="#404040" fill-opacity="0.3"/>
</svg>
