<svg width="45" height="46" viewBox="0 0 45 46" fill="none" xmlns="http://www.w3.org/2000/svg">
<path d="M6.5918 40.1387H38.4082C42.043 40.1387 45 37.1816 45 33.5469V12.4531C45 8.81837 42.043 5.86133 38.4082 5.86133H6.5918C2.95704 5.86133 0 8.81837 0 12.4531V33.5469C0 37.1816 2.95704 40.1387 6.5918 40.1387ZM2.63672 12.4531C2.63672 10.2723 4.41101 8.49805 6.5918 8.49805H38.4082C40.589 8.49805 42.3633 10.2723 42.3633 12.4531V33.5469C42.3633 35.7277 40.589 37.502 38.4082 37.502H6.5918C4.41101 37.502 2.63672 35.7277 2.63672 33.5469V12.4531Z" fill="#404040" fill-opacity="0.3"/>
<path d="M15.9082 14.1677V32.0884L31.7725 22.9811L15.9082 14.1677ZM18.5449 18.6487L26.4111 23.0189L18.5449 27.5346V18.6487Z" fill="#404040" fill-opacity="0.3"/>
</svg>
