<svg width="36" height="24" viewBox="0 0 36 24" fill="none" xmlns="http://www.w3.org/2000/svg">
<g clip-path="url(#clip0)">
<path d="M14.2876 16.2172L24.0188 11.5048L14.2876 6.75281V16.2172Z" fill="white"/>
<path opacity="0.12" d="M14.2876 6.75281L22.8235 12.084L24.0188 11.5048L14.2876 6.75281Z" fill="#420000"/>
<path d="M35.6205 5.10737C35.6205 5.10737 35.269 2.79062 34.1866 1.76389C32.8231 0.421226 31.2909 0.421226 30.574 0.342246C25.5558 0 18.007 0 18.007 0H17.993C17.993 0 10.4444 0 5.39789 0.342246C4.69505 0.421226 3.1628 0.421226 1.78523 1.76389C0.716906 2.79062 0.365484 5.10737 0.365484 5.10737C0.365484 5.10737 0 7.84534 0 10.5701V13.1238C0 15.8486 0.365484 18.5735 0.365484 18.5735C0.365484 18.5735 0.716906 20.8902 1.7993 21.9169C3.1628 23.2596 4.96209 23.2201 5.76338 23.3517C8.64506 23.615 17.993 23.694 17.993 23.694C17.993 23.694 25.5556 23.6808 30.588 23.3386C31.2909 23.2596 32.8231 23.2596 34.2007 21.9169C35.2831 20.8902 35.6345 18.5735 35.6345 18.5735C35.6345 18.5735 36 15.8486 36 13.1238V10.5701C35.9859 7.84534 35.6205 5.10737 35.6205 5.10737ZM14.282 16.2172V6.75278L24.0093 11.5047L14.2819 16.2172H14.282Z" fill="url(#paint0_linear)"/>
</g>
<defs>
<linearGradient id="paint0_linear" x1="17.9928" y1="0" x2="17.9928" y2="23.7011" gradientUnits="userSpaceOnUse">
<stop stop-color="#E52D27"/>
<stop offset="1" stop-color="#BF171D"/>
</linearGradient>
<clipPath id="clip0">
<rect width="36" height="23.694" fill="white"/>
</clipPath>
</defs>
</svg>
